<mxfile host="app.diagrams.net" modified="2023-02-08T15:11:40.569Z" agent="5.0 (Windows)" etag="tL9iYXILigNAsufq4_Q4" version="20.8.18" type="github">
  <diagram name="ページ1" id="CVAu-VidzvquRBVw3Ic1">
    <mxGraphModel dx="2074" dy="1114" grid="1" gridSize="10" guides="1" tooltips="1" connect="1" arrows="1" fold="1" page="1" pageScale="1" pageWidth="827" pageHeight="1169" math="0" shadow="0">
      <root>
        <mxCell id="0" />
        <mxCell id="1" parent="0" />
        <mxCell id="x65UTNDEKuEd-KKCUQTn-1" value="" style="whiteSpace=wrap;html=1;aspect=fixed;" parent="1" vertex="1">
          <mxGeometry x="320" y="380" width="80" height="80" as="geometry" />
        </mxCell>
      </root>
    </mxGraphModel>
  </diagram>
</mxfile>
